<svg width="117" height="132" viewBox="0 0 117 132" fill="none" xmlns="http://www.w3.org/2000/svg">
<path d="M105.527 55.4966H97.3984V64.4274H105.527V55.4966Z" fill="white"/>
<path d="M105.527 122.352H97.3984V131.282H105.527V122.352Z" fill="white"/>
<path d="M116.297 122.352H108.168V131.282H116.297V122.352Z" fill="white"/>
<path d="M105.527 44.397H97.3984V53.326H105.527V44.397Z" fill="white"/>
<path d="M105.527 111.251H97.3984V120.18H105.527V111.251Z" fill="white"/>
<path d="M116.297 111.251H108.168V120.18H116.297V111.251Z" fill="white"/>
<path d="M105.527 33.2959H97.3984V42.2249H105.527V33.2959Z" fill="white"/>
<path d="M105.527 100.151H97.3984V109.08H105.527V100.151Z" fill="white"/>
<path opacity="0.5" d="M62.332 77.6929H54.2031V86.6219H62.332V77.6929Z" fill="white"/>
<path d="M19.1445 55.4966H11.0156V64.4274H19.1445V55.4966Z" fill="white"/>
<path d="M19.1445 122.352H11.0156V131.282H19.1445V122.352Z" fill="white"/>
<path d="M8.12884 122.352H0L0 131.282H8.12884V122.352Z" fill="white"/>
<path d="M19.1445 44.397H11.0156V53.326H19.1445V44.397Z" fill="white"/>
<path d="M19.1445 111.251H11.0156V120.18H19.1445V111.251Z" fill="white"/>
<path d="M8.12884 111.251H0L0 120.18H8.12884V111.251Z" fill="white"/>
<path d="M19.1445 33.2959H11.0156V42.2249H19.1445V33.2959Z" fill="white"/>
<path d="M19.1445 100.151H11.0156V109.08H19.1445V100.151Z" fill="white"/>
<path d="M62.332 22.2012H54.2031V31.1302H62.332V22.2012Z" fill="white"/>
<path d="M62.332 33.2959H54.2031V42.2249H62.332V33.2959Z" fill="white"/>
<path d="M62.332 100.151H54.2031V109.08H62.332V100.151Z" fill="white"/>
<path d="M62.332 44.397H54.2031V53.326H62.332V44.397Z" fill="white"/>
<path d="M62.332 111.251H54.2031V120.18H62.332V111.251Z" fill="white"/>
<path d="M62.332 11.1006H54.2031V20.0296H62.332V11.1006Z" fill="white"/>
<path d="M62.332 55.4966H54.2031V64.4274H62.332V55.4966Z" fill="white"/>
<path d="M62.332 122.352H54.2031V131.282H62.332V122.352Z" fill="white"/>
<path d="M62.332 88.7988H54.2031V97.7278H62.332V88.7988Z" fill="white"/>
<path d="M62.332 66.5957H54.2031V75.5247H62.332V66.5957Z" fill="white"/>
<path d="M62.332 0L54.2031 0V8.93082H62.332V0Z" fill="white"/>
<path d="M83.9257 33.2959H75.7969V42.2249H83.9257V33.2959Z" fill="white"/>
<path d="M83.9257 100.151H75.7969V109.08H83.9257V100.151Z" fill="white"/>
<path d="M83.9257 11.1006H75.7969V20.0296H83.9257V11.1006Z" fill="white"/>
<path d="M83.9257 22.2012H75.7969V31.1302H83.9257V22.2012Z" fill="white"/>
<path d="M83.9257 55.4966H75.7969V64.4274H83.9257V55.4966Z" fill="white"/>
<path d="M83.9257 122.352H75.7969V131.282H83.9257V122.352Z" fill="white"/>
<path opacity="0.3" d="M83.9257 66.5957H75.7969V75.5247H83.9257V66.5957Z" fill="white"/>
<path opacity="0.6" d="M83.9257 77.6929H75.7969V86.6219H83.9257V77.6929Z" fill="white"/>
<path d="M83.9257 44.397H75.7969V53.326H83.9257V44.397Z" fill="white"/>
<path d="M83.9257 111.251H75.7969V120.18H83.9257V111.251Z" fill="white"/>
<path d="M73.1288 88.7988H65V97.7278H73.1288V88.7988Z" fill="white"/>
<path d="M73.1288 11.1006H65V20.0296H73.1288V11.1006Z" fill="white"/>
<path d="M73.1288 33.2959H65V42.2249H73.1288V33.2959Z" fill="white"/>
<path d="M73.1288 100.151H65V109.08H73.1288V100.151Z" fill="white"/>
<path d="M73.1288 0L65 0V8.93082H73.1288V0Z" fill="white"/>
<path d="M73.1288 22.2012H65V31.1302H73.1288V22.2012Z" fill="white"/>
<path opacity="0.6" d="M73.1288 77.6929H65V86.6219H73.1288V77.6929Z" fill="white"/>
<path d="M73.1288 66.5957H65V75.5247H73.1288V66.5957Z" fill="white"/>
<path d="M73.1288 44.397H65V53.326H73.1288V44.397Z" fill="white"/>
<path d="M73.1288 111.251H65V120.18H73.1288V111.251Z" fill="white"/>
<path d="M73.1288 55.4966H65V64.4274H73.1288V55.4966Z" fill="white"/>
<path d="M73.1288 122.352H65V131.282H73.1288V122.352Z" fill="white"/>
<path opacity="0.5" d="M94.7265 77.6929H86.5977V86.6219H94.7265V77.6929Z" fill="white"/>
<path d="M94.7265 66.5957H86.5977V75.5247H94.7265V66.5957Z" fill="white"/>
<path opacity="0.6" d="M94.7265 11.1006H86.5977V20.0296H94.7265V11.1006Z" fill="white"/>
<path d="M94.7265 55.4966H86.5977V64.4274H94.7265V55.4966Z" fill="white"/>
<path d="M94.7265 122.352H86.5977V131.282H94.7265V122.352Z" fill="white"/>
<path d="M94.7265 44.397H86.5977V53.326H94.7265V44.397Z" fill="white"/>
<path d="M94.7265 111.251H86.5977V120.18H94.7265V111.251Z" fill="white"/>
<path d="M94.7265 22.2012H86.5977V31.1302H94.7265V22.2012Z" fill="white"/>
<path d="M94.7265 33.2959H86.5977V42.2249H94.7265V33.2959Z" fill="white"/>
<path d="M94.7265 100.151H86.5977V109.08H94.7265V100.151Z" fill="white"/>
<path d="M51.5351 88.7988H43.4062V97.7278H51.5351V88.7988Z" fill="white"/>
<path d="M51.5351 77.6929H43.4062V86.6219H51.5351V77.6929Z" fill="white"/>
<path d="M51.5351 0L43.4062 0V8.93082H51.5351V0Z" fill="white"/>
<path d="M51.5351 11.1006H43.4062V20.0296H51.5351V11.1006Z" fill="white"/>
<path d="M51.5351 44.397H43.4062V53.326H51.5351V44.397Z" fill="white"/>
<path d="M51.5351 111.251H43.4062V120.18H51.5351V111.251Z" fill="white"/>
<path d="M51.5351 22.2012H43.4062V31.1302H51.5351V22.2012Z" fill="white"/>
<path d="M51.5351 55.4966H43.4062V64.4274H51.5351V55.4966Z" fill="white"/>
<path d="M51.5351 122.352H43.4062V131.282H51.5351V122.352Z" fill="white"/>
<path d="M51.5351 66.5957H43.4062V75.5247H51.5351V66.5957Z" fill="white"/>
<path d="M51.5351 33.2959H43.4062V42.2249H51.5351V33.2959Z" fill="white"/>
<path d="M51.5351 100.151H43.4062V109.08H51.5351V100.151Z" fill="white"/>
<path d="M29.9413 33.2959H21.8125V42.2249H29.9413V33.2959Z" fill="white"/>
<path d="M29.9413 100.151H21.8125V109.08H29.9413V100.151Z" fill="white"/>
<path d="M29.9413 77.6929H21.8125V86.6219H29.9413V77.6929Z" fill="white"/>
<path d="M29.9413 44.397H21.8125V53.326H29.9413V44.397Z" fill="white"/>
<path d="M29.9413 111.251H21.8125V120.18H29.9413V111.251Z" fill="white"/>
<path d="M29.9413 55.4966H21.8125V64.4274H29.9413V55.4966Z" fill="white"/>
<path d="M29.9413 122.352H21.8125V131.282H29.9413V122.352Z" fill="white"/>
<path d="M29.9413 66.5957H21.8125V75.5247H29.9413V66.5957Z" fill="white"/>
<path d="M29.9413 11.1006H21.8125V20.0296H29.9413V11.1006Z" fill="white"/>
<path d="M29.9413 22.2012H21.8125V31.1302H29.9413V22.2012Z" fill="white"/>
<path d="M40.7421 77.6929H32.6133V86.6219H40.7421V77.6929Z" fill="white"/>
<path d="M40.7421 44.397H32.6133V53.326H40.7421V44.397Z" fill="white"/>
<path d="M40.7421 111.251H32.6133V120.18H40.7421V111.251Z" fill="white"/>
<path d="M40.7421 11.1006H32.6133V20.0296H40.7421V11.1006Z" fill="white"/>
<path d="M40.7421 22.2012H32.6133V31.1302H40.7421V22.2012Z" fill="white"/>
<path d="M40.7421 55.4966H32.6133V64.4274H40.7421V55.4966Z" fill="white"/>
<path d="M40.7421 122.352H32.6133V131.282H40.7421V122.352Z" fill="white"/>
<path d="M40.7421 33.2959H32.6133V42.2249H40.7421V33.2959Z" fill="white"/>
<path d="M40.7421 100.151H32.6133V109.08H40.7421V100.151Z" fill="white"/>
<path d="M40.7421 66.5957H32.6133V75.5247H40.7421V66.5957Z" fill="white"/>
</svg>
