<svg width="64" height="75" viewBox="0 0 64 75" fill="none" xmlns="http://www.w3.org/2000/svg">
<circle cx="32" cy="43" r="32" fill="black"/>
<mask id="path-2-outside-1_1490_4629" maskUnits="userSpaceOnUse" x="19" y="24" width="27" height="33" fill="black">
<rect fill="white" x="19" y="24" width="27" height="33"/>
<path d="M44.7032 30.0347C44.7032 35.5689 37.3243 41.1645 26.01 41.2875C25.764 42.5173 25.5795 43.8087 25.5795 45.0385C25.5795 49.5273 28.1007 50.8186 30.8063 50.8186C33.4504 50.8186 36.0945 49.2199 38.3696 45.4074L40.2759 45.8993C38.9845 49.3428 35.4181 55.8609 28.9615 55.8609C24.1037 55.8609 20.5988 53.4012 20.5988 47.0677C20.5988 38.0285 28.5311 25.1154 38.2467 25.1154C41.8746 25.1154 44.7032 26.2837 44.7032 30.0347ZM36.2789 28.2515C32.651 28.2515 28.5311 33.4167 26.6249 39.0739C34.3727 38.213 38.5541 33.7856 38.5541 30.4651C38.5541 28.9279 37.6932 28.2515 36.2789 28.2515Z"/>
</mask>
<path d="M44.7032 30.0347C44.7032 35.5689 37.3243 41.1645 26.01 41.2875C25.764 42.5173 25.5795 43.8087 25.5795 45.0385C25.5795 49.5273 28.1007 50.8186 30.8063 50.8186C33.4504 50.8186 36.0945 49.2199 38.3696 45.4074L40.2759 45.8993C38.9845 49.3428 35.4181 55.8609 28.9615 55.8609C24.1037 55.8609 20.5988 53.4012 20.5988 47.0677C20.5988 38.0285 28.5311 25.1154 38.2467 25.1154C41.8746 25.1154 44.7032 26.2837 44.7032 30.0347ZM36.2789 28.2515C32.651 28.2515 28.5311 33.4167 26.6249 39.0739C34.3727 38.213 38.5541 33.7856 38.5541 30.4651C38.5541 28.9279 37.6932 28.2515 36.2789 28.2515Z" fill="white"/>
<path d="M26.01 41.2875L26.0024 40.5959L25.4417 40.602L25.3317 41.1519L26.01 41.2875ZM38.3696 45.4074L38.5425 44.7377L38.041 44.6083L37.7757 45.0529L38.3696 45.4074ZM40.2759 45.8993L40.9235 46.1422L41.1937 45.4218L40.4487 45.2296L40.2759 45.8993ZM26.6249 39.0739L25.9694 38.853L25.6229 39.8811L26.7013 39.7613L26.6249 39.0739ZM44.7032 30.0347H44.0115C44.0115 32.4815 42.3704 35.0761 39.224 37.1094C36.0931 39.1327 31.5527 40.5355 26.0024 40.5959L26.01 41.2875L26.0175 41.9792C31.7816 41.9165 36.5878 40.4601 39.9749 38.2713C43.3465 36.0924 45.3949 33.1221 45.3949 30.0347H44.7032ZM26.01 41.2875L25.3317 41.1519C25.0814 42.4034 24.8878 43.7445 24.8878 45.0385H25.5795H26.2712C26.2712 43.8728 26.4466 42.6313 26.6882 41.4232L26.01 41.2875ZM25.5795 45.0385H24.8878C24.8878 47.4118 25.5578 49.0693 26.712 50.1228C27.854 51.1651 29.3555 51.5103 30.8063 51.5103V50.8186V50.1269C29.5514 50.1269 28.4396 49.8265 27.6446 49.101C26.8618 48.3865 26.2712 47.154 26.2712 45.0385H25.5795ZM30.8063 50.8186V51.5103C33.7776 51.5103 36.6135 49.6999 38.9636 45.7619L38.3696 45.4074L37.7757 45.0529C35.5755 48.7398 33.1232 50.1269 30.8063 50.1269V50.8186ZM38.3696 45.4074L38.1968 46.0772L40.103 46.5691L40.2759 45.8993L40.4487 45.2296L38.5425 44.7377L38.3696 45.4074ZM40.2759 45.8993L39.6282 45.6565C39.0009 47.3291 37.8248 49.7338 36.0423 51.7078C34.265 53.6761 31.932 55.1692 28.9615 55.1692V55.8609V56.5526C32.4476 56.5526 35.1261 54.7866 37.069 52.635C39.0067 50.4892 40.2595 47.913 40.9235 46.1422L40.2759 45.8993ZM28.9615 55.8609V55.1692C26.6405 55.1692 24.7467 54.5817 23.4344 53.3374C22.1292 52.0998 21.2905 50.1088 21.2905 47.0677H20.5988H19.9071C19.9071 50.3601 20.8208 52.7657 22.4825 54.3413C24.1372 55.9102 26.4247 56.5526 28.9615 56.5526V55.8609ZM20.5988 47.0677H21.2905C21.2905 42.7229 23.2087 37.3749 26.3371 33.111C29.472 28.8381 33.7029 25.8071 38.2467 25.8071V25.1154V24.4237C33.0748 24.4237 28.4818 27.8492 25.2217 32.2927C21.955 36.7451 19.9071 42.3733 19.9071 47.0677H20.5988ZM38.2467 25.1154V25.8071C40.009 25.8071 41.4619 26.095 42.4562 26.7469C43.3984 27.3647 44.0115 28.363 44.0115 30.0347H44.7032H45.3949C45.3949 27.9555 44.5937 26.4941 43.2147 25.59C41.8876 24.7199 40.1123 24.4237 38.2467 24.4237V25.1154ZM36.2789 28.2515V27.5597C34.1552 27.5597 32.0424 29.0466 30.2822 31.0897C28.4956 33.1635 26.9476 35.9498 25.9694 38.853L26.6249 39.0739L27.2804 39.2947C28.2083 36.5407 29.6734 33.9159 31.3303 31.9927C33.0136 30.0389 34.7747 28.9432 36.2789 28.9432V28.2515ZM26.6249 39.0739L26.7013 39.7613C30.6892 39.3182 33.8006 37.9526 35.93 36.2296C38.0419 34.5207 39.2458 32.4048 39.2458 30.4651H38.5541H37.8624C37.8624 31.846 36.9756 33.604 35.0598 35.1541C33.1616 36.6901 30.3084 37.9686 26.5485 38.3864L26.6249 39.0739ZM38.5541 30.4651H39.2458C39.2458 29.5686 38.9916 28.8039 38.4156 28.2732C37.85 27.7519 37.0852 27.5597 36.2789 27.5597V28.2515V28.9432C36.887 28.9432 37.2598 29.0892 37.4781 29.2905C37.6862 29.4822 37.8624 29.8244 37.8624 30.4651H38.5541Z" fill="white" mask="url(#path-2-outside-1_1490_4629)"/>
<path d="M21.8164 60.0938C21.8737 60.0938 21.931 60.0938 24.5358 60.0887C27.1407 60.0835 32.2914 60.0732 35.2035 60.0309C38.6349 59.9811 40.5295 59.8813 42.6055 60.0388C43.3256 60.0934 43.3401 60.3397 43.217 60.5549C43.0939 60.7701 42.8253 61.0089 42.5489 61.2169C42.2724 61.4249 41.9962 61.5949 41.6876 61.6599" stroke="#F07A04" stroke-width="3.74712" stroke-linecap="round"/>
</svg>
