<svg width="500" height="122" viewBox="0 0 500 122" fill="none" xmlns="http://www.w3.org/2000/svg">
<mask id="path-1-outside-1_14_9460" maskUnits="userSpaceOnUse" x="4" y="20.4844" width="203" height="78" fill="black">
<rect fill="white" x="4" y="20.4844" width="203" height="78"/>
<path d="M15.1159 96.5901H5.70811V22.4904H15.1159V43.103C17.3357 43.103 28.9634 42.9973 31.1832 43.3144C32.8745 43.5258 34.6715 44.0543 35.7285 45.3228C37.3141 47.2255 37.1027 50.1853 37.1027 52.6165H46.6162C46.7219 57.9018 46.7219 91.1991 46.6162 96.5901H37.1027V52.6165C34.3544 52.7222 17.8643 52.6165 15.1159 52.6165V96.5901ZM72.5389 96.4844C70.9533 96.3787 69.262 96.1673 67.7822 95.4273C66.9365 94.8988 66.1966 94.1588 65.7737 93.3132C64.9281 91.5162 65.0338 89.2964 65.0338 87.288C63.1311 87.3937 61.1227 87.3937 59.22 86.6537C58.1629 86.2309 57.0002 85.491 56.4716 84.4339C55.8374 83.3769 55.7317 82.0027 55.7317 80.8399C55.626 79.2543 55.5203 71.9606 55.7317 70.3751C55.9431 69.2123 56.4716 67.9438 57.3173 67.0982C58.3743 66.1468 59.9599 65.724 61.3341 65.5126C63.3425 65.1955 65.3509 65.3012 67.3593 65.3012H93.3629V52.7222C89.7689 52.8279 68.8392 52.8279 65.2452 52.7222C65.2452 50.5024 65.0338 48.0711 66.0909 46.0627C67.0422 44.4771 69.0506 43.6315 70.8476 43.4201C72.6446 43.103 82.1581 43.3144 83.9551 43.2087C86.2807 43.103 88.8176 43.2087 90.826 44.3714C91.9888 45.1114 92.8344 46.4856 93.0458 47.8597C93.4686 49.4453 93.3629 51.0309 93.3629 52.7222C95.6885 52.6165 98.3311 52.7222 100.34 53.885C101.502 54.6249 102.242 56.1048 102.559 57.479C102.982 59.5931 102.876 69.9522 102.876 72.0663C102.876 80.2057 102.876 88.345 102.771 96.4844C99.7053 96.5901 96.5341 96.5901 93.3629 96.4844V74.8147H65.0338C65.1395 76.4003 65.0338 85.491 65.0338 86.9709H84.1665V96.4844C82.6867 96.5901 74.1245 96.5901 72.5389 96.4844ZM123.231 96.5901C121.434 96.5901 119.637 96.5901 117.945 96.1673C116.783 95.8501 115.725 95.2159 114.986 94.2646C114.14 93.2075 113.928 91.7276 113.928 90.3534C113.823 89.5078 113.823 84.751 113.823 83.9054V52.5108H123.125C123.125 49.9738 123.019 46.8027 124.816 45.0057C126.719 43.2087 129.89 43.103 132.533 43.103H154.837V52.5108C150.926 52.5108 127.142 52.6165 123.231 52.5108V87.0766H154.942V96.5901C151.031 96.6958 127.142 96.6958 123.231 96.5901ZM173.955 96.5901H164.547V22.4904H173.955V96.5901ZM195.942 96.5901V71.4321H173.955V61.9186H195.942V43.103H205.456C205.456 45.0057 205.667 54.7306 205.35 56.5276C205.139 57.7961 204.716 59.276 203.764 60.1216C201.862 62.0243 198.69 62.13 196.048 62.0243V71.4321C197.739 71.3264 199.536 71.4321 201.227 71.8549C202.602 72.2778 204.081 73.2291 204.716 74.6033C205.667 76.506 205.456 78.6201 205.456 80.7342C205.456 82.6369 205.561 94.5817 205.456 96.5901H195.942Z"/>
</mask>
<path d="M15.1159 96.5901H5.70811V22.4904H15.1159V43.103C17.3357 43.103 28.9634 42.9973 31.1832 43.3144C32.8745 43.5258 34.6715 44.0543 35.7285 45.3228C37.3141 47.2255 37.1027 50.1853 37.1027 52.6165H46.6162C46.7219 57.9018 46.7219 91.1991 46.6162 96.5901H37.1027V52.6165C34.3544 52.7222 17.8643 52.6165 15.1159 52.6165V96.5901ZM72.5389 96.4844C70.9533 96.3787 69.262 96.1673 67.7822 95.4273C66.9365 94.8988 66.1966 94.1588 65.7737 93.3132C64.9281 91.5162 65.0338 89.2964 65.0338 87.288C63.1311 87.3937 61.1227 87.3937 59.22 86.6537C58.1629 86.2309 57.0002 85.491 56.4716 84.4339C55.8374 83.3769 55.7317 82.0027 55.7317 80.8399C55.626 79.2543 55.5203 71.9606 55.7317 70.3751C55.9431 69.2123 56.4716 67.9438 57.3173 67.0982C58.3743 66.1468 59.9599 65.724 61.3341 65.5126C63.3425 65.1955 65.3509 65.3012 67.3593 65.3012H93.3629V52.7222C89.7689 52.8279 68.8392 52.8279 65.2452 52.7222C65.2452 50.5024 65.0338 48.0711 66.0909 46.0627C67.0422 44.4771 69.0506 43.6315 70.8476 43.4201C72.6446 43.103 82.1581 43.3144 83.9551 43.2087C86.2807 43.103 88.8176 43.2087 90.826 44.3714C91.9888 45.1114 92.8344 46.4856 93.0458 47.8597C93.4686 49.4453 93.3629 51.0309 93.3629 52.7222C95.6885 52.6165 98.3311 52.7222 100.34 53.885C101.502 54.6249 102.242 56.1048 102.559 57.479C102.982 59.5931 102.876 69.9522 102.876 72.0663C102.876 80.2057 102.876 88.345 102.771 96.4844C99.7053 96.5901 96.5341 96.5901 93.3629 96.4844V74.8147H65.0338C65.1395 76.4003 65.0338 85.491 65.0338 86.9709H84.1665V96.4844C82.6867 96.5901 74.1245 96.5901 72.5389 96.4844ZM123.231 96.5901C121.434 96.5901 119.637 96.5901 117.945 96.1673C116.783 95.8501 115.725 95.2159 114.986 94.2646C114.14 93.2075 113.928 91.7276 113.928 90.3534C113.823 89.5078 113.823 84.751 113.823 83.9054V52.5108H123.125C123.125 49.9738 123.019 46.8027 124.816 45.0057C126.719 43.2087 129.89 43.103 132.533 43.103H154.837V52.5108C150.926 52.5108 127.142 52.6165 123.231 52.5108V87.0766H154.942V96.5901C151.031 96.6958 127.142 96.6958 123.231 96.5901ZM173.955 96.5901H164.547V22.4904H173.955V96.5901ZM195.942 96.5901V71.4321H173.955V61.9186H195.942V43.103H205.456C205.456 45.0057 205.667 54.7306 205.35 56.5276C205.139 57.7961 204.716 59.276 203.764 60.1216C201.862 62.0243 198.69 62.13 196.048 62.0243V71.4321C197.739 71.3264 199.536 71.4321 201.227 71.8549C202.602 72.2778 204.081 73.2291 204.716 74.6033C205.667 76.506 205.456 78.6201 205.456 80.7342C205.456 82.6369 205.561 94.5817 205.456 96.5901H195.942Z" fill="white"/>
<path d="M15.1159 96.5901V97.7792H16.305V96.5901H15.1159ZM5.70811 96.5901H4.51904V97.7792H5.70811V96.5901ZM5.70811 22.4904V21.3013H4.51904V22.4904H5.70811ZM15.1159 22.4904H16.305V21.3013H15.1159V22.4904ZM15.1159 43.103H13.9269V44.292H15.1159V43.103ZM31.1832 43.3144L31.015 44.4915L31.0254 44.493L31.0357 44.4943L31.1832 43.3144ZM35.7285 45.3228L36.642 44.5616L36.642 44.5616L35.7285 45.3228ZM37.1027 52.6165H35.9136V53.8056H37.1027V52.6165ZM46.6162 52.6165L47.8051 52.5927L47.7818 51.4274H46.6162V52.6165ZM46.6162 96.5901V97.7792H47.7822L47.8051 96.6134L46.6162 96.5901ZM37.1027 96.5901H35.9136V97.7792H37.1027V96.5901ZM37.1027 52.6165H38.2918V51.3808L37.057 51.4283L37.1027 52.6165ZM15.1159 52.6165V51.4274H13.9269V52.6165H15.1159ZM15.1159 96.5901V95.401H5.70811V96.5901V97.7792H15.1159V96.5901ZM5.70811 96.5901H6.89718V22.4904H5.70811H4.51904V96.5901H5.70811ZM5.70811 22.4904V23.6794H15.1159V22.4904V21.3013H5.70811V22.4904ZM15.1159 22.4904H13.9269V43.103H15.1159H16.305V22.4904H15.1159ZM15.1159 43.103V44.292C16.2447 44.292 19.6812 44.2656 23.145 44.2788C26.6568 44.2922 30.0089 44.3478 31.015 44.4915L31.1832 43.3144L31.3514 42.1373C30.1376 41.9639 26.566 41.9137 23.1541 41.9007C19.6941 41.8875 16.2069 41.9139 15.1159 41.9139V43.103ZM31.1832 43.3144L31.0357 44.4943C32.6605 44.6974 34.0615 45.1798 34.8151 46.084L35.7285 45.3228L36.642 44.5616C35.2814 42.9289 33.0885 42.3542 31.3307 42.1345L31.1832 43.3144ZM35.7285 45.3228L34.8151 46.084C35.3949 46.7798 35.6953 47.729 35.8287 48.9054C35.9641 50.0989 35.9136 51.3347 35.9136 52.6165H37.1027H38.2918C38.2918 51.4671 38.3471 50.0074 38.1917 48.6375C38.0344 47.2505 37.6477 45.7684 36.642 44.5616L35.7285 45.3228ZM37.1027 52.6165V53.8056H46.6162V52.6165V51.4274H37.1027V52.6165ZM46.6162 52.6165L45.4274 52.6403C45.5328 57.9095 45.5328 91.1912 45.4274 96.5668L46.6162 96.5901L47.8051 96.6134C47.9111 91.207 47.9111 57.894 47.8051 52.5927L46.6162 52.6165ZM46.6162 96.5901V95.401H37.1027V96.5901V97.7792H46.6162V96.5901ZM37.1027 96.5901H38.2918V52.6165H37.1027H35.9136V96.5901H37.1027ZM37.1027 52.6165L37.057 51.4283C34.3388 51.5328 17.9038 51.4274 15.1159 51.4274V52.6165V53.8056C17.8248 53.8056 34.3699 53.9115 37.1484 53.8047L37.1027 52.6165ZM15.1159 52.6165H13.9269V96.5901H15.1159H16.305V52.6165H15.1159ZM67.7822 95.4273L67.1519 96.4356L67.1999 96.4656L67.2504 96.4909L67.7822 95.4273ZM65.7737 93.3132L64.6979 93.8195L64.7039 93.8323L64.7102 93.845L65.7737 93.3132ZM65.0338 87.288H66.2229V86.031L64.9678 86.1007L65.0338 87.288ZM59.22 86.6537L58.7784 87.7578L58.789 87.762L59.22 86.6537ZM56.4716 84.4339L57.5352 83.9022L57.5148 83.8613L57.4913 83.8222L56.4716 84.4339ZM55.7317 80.8399H56.9208V80.8003L56.9181 80.7608L55.7317 80.8399ZM55.7317 70.3751L54.5618 70.1623L54.5568 70.19L54.5531 70.2179L55.7317 70.3751ZM57.3173 67.0982L56.5218 66.2143L56.4986 66.2353L56.4765 66.2574L57.3173 67.0982ZM61.3341 65.5126L61.5149 66.6878L61.5196 66.6871L61.3341 65.5126ZM93.3629 65.3012V66.4902H94.552V65.3012H93.3629ZM93.3629 52.7222H94.552V51.4976L93.328 51.5336L93.3629 52.7222ZM65.2452 52.7222H64.0561V53.8768L65.2103 53.9107L65.2452 52.7222ZM66.0909 46.0627L65.0712 45.451L65.0541 45.4795L65.0386 45.5089L66.0909 46.0627ZM70.8476 43.4201L70.9866 44.601L71.0206 44.597L71.0543 44.5911L70.8476 43.4201ZM83.9551 43.2087L83.9011 42.0208L83.8932 42.0212L83.8853 42.0217L83.9551 43.2087ZM90.826 44.3714L91.4644 43.3683L91.4434 43.3549L91.4218 43.3424L90.826 44.3714ZM93.0458 47.8597L91.8706 48.0405L91.8804 48.104L91.8969 48.1661L93.0458 47.8597ZM93.3629 52.7222H92.1739V53.9665L93.4169 53.91L93.3629 52.7222ZM100.34 53.885L100.978 52.8818L100.957 52.8684L100.935 52.8559L100.34 53.885ZM102.559 57.479L103.725 57.2458L103.722 57.2286L103.718 57.2116L102.559 57.479ZM102.771 96.4844L102.812 97.6727L103.945 97.6337L103.96 96.4998L102.771 96.4844ZM93.3629 96.4844H92.1739V97.6345L93.3233 97.6728L93.3629 96.4844ZM93.3629 74.8147H94.552V73.6256H93.3629V74.8147ZM65.0338 74.8147V73.6256H63.7628L63.8474 74.8938L65.0338 74.8147ZM65.0338 86.9709H63.8447V88.1599H65.0338V86.9709ZM84.1665 86.9709H85.3556V85.7818H84.1665V86.9709ZM84.1665 96.4844L84.2513 97.6704L85.3556 97.5915V96.4844H84.1665ZM72.5389 96.4844L72.618 95.2979C71.0556 95.1938 69.5682 94.9909 68.3139 94.3638L67.7822 95.4273L67.2504 96.4909C68.9559 97.3436 70.8511 97.5636 72.4598 97.6708L72.5389 96.4844ZM67.7822 95.4273L68.4124 94.419C67.7103 93.9802 67.1423 93.3914 66.8373 92.7814L65.7737 93.3132L64.7102 93.845C65.2509 94.9263 66.1628 95.8174 67.1519 96.4356L67.7822 95.4273ZM65.7737 93.3132L66.8496 92.8069C66.1456 91.3107 66.2229 89.4274 66.2229 87.288H65.0338H63.8447C63.8447 89.1653 63.7106 91.7217 64.6979 93.8195L65.7737 93.3132ZM65.0338 87.288L64.9678 86.1007C63.0882 86.2052 61.3002 86.1869 59.651 85.5455L59.22 86.6537L58.789 87.762C60.9452 88.6005 63.174 88.5822 65.0998 88.4752L65.0338 87.288ZM59.22 86.6537L59.6616 85.5497C58.7049 85.167 57.8699 84.5717 57.5352 83.9022L56.4716 84.4339L55.4081 84.9657C56.1304 86.4103 57.621 87.2948 58.7784 87.7578L59.22 86.6537ZM56.4716 84.4339L57.4913 83.8222C57.038 83.0667 56.9208 81.9847 56.9208 80.8399H55.7317H54.5426C54.5426 82.0207 54.6368 83.687 55.452 85.0457L56.4716 84.4339ZM55.7317 80.8399L56.9181 80.7608C56.868 80.0084 56.815 77.8217 56.8018 75.6004C56.7884 73.344 56.8182 71.2234 56.9103 70.5322L55.7317 70.3751L54.5531 70.2179C54.4338 71.1123 54.4107 73.4314 54.4237 75.6146C54.4369 77.8329 54.4897 80.0859 54.5453 80.919L55.7317 80.8399ZM55.7317 70.3751L56.9016 70.5878C57.0848 69.5799 57.5348 68.5623 58.1581 67.939L57.3173 67.0982L56.4765 66.2574C55.4085 67.3253 54.8014 68.8447 54.5618 70.1623L55.7317 70.3751ZM57.3173 67.0982L58.1127 67.982C58.8967 67.2765 60.1822 66.8929 61.5149 66.6878L61.3341 65.5126L61.1533 64.3373C59.7376 64.5551 57.852 65.0172 56.5218 66.2143L57.3173 67.0982ZM61.3341 65.5126L61.5196 66.6871C63.4068 66.3891 65.2665 66.4902 67.3593 66.4902V65.3012V64.1121C65.4353 64.1121 63.2782 64.0018 61.1487 64.3381L61.3341 65.5126ZM67.3593 65.3012V66.4902H93.3629V65.3012V64.1121H67.3593V65.3012ZM93.3629 65.3012H94.552V52.7222H93.3629H92.1739V65.3012H93.3629ZM93.3629 52.7222L93.328 51.5336C89.7573 51.6387 68.8509 51.6387 65.2802 51.5336L65.2452 52.7222L65.2103 53.9107C68.8276 54.0171 89.7806 54.0171 93.3979 53.9107L93.3629 52.7222ZM65.2452 52.7222H66.4343C66.4343 51.538 66.3823 50.4779 66.4578 49.3959C66.5312 48.3438 66.7217 47.4172 67.1431 46.6165L66.0909 46.0627L65.0386 45.5089C64.403 46.7167 64.1706 48.0099 64.0855 49.2304C64.0024 50.4211 64.0561 51.6866 64.0561 52.7222H65.2452ZM66.0909 46.0627L67.1105 46.6745C67.7925 45.5378 69.3673 44.7915 70.9866 44.601L70.8476 43.4201L70.7087 42.2392C68.7339 42.4715 66.2919 43.4165 65.0712 45.451L66.0909 46.0627ZM70.8476 43.4201L71.0543 44.5911C71.3966 44.5306 72.2309 44.4839 73.4279 44.4569C74.5864 44.4308 75.9891 44.4242 77.4014 44.4242C80.1824 44.4242 83.0799 44.4513 84.025 44.3957L83.9551 43.2087L83.8853 42.0217C83.0333 42.0718 80.2756 42.046 77.4014 42.046C75.986 42.046 74.561 42.0526 73.3743 42.0794C72.2259 42.1053 71.1971 42.151 70.641 42.2491L70.8476 43.4201ZM83.9551 43.2087L84.0091 44.3965C86.3128 44.2918 88.5424 44.4233 90.2302 45.4005L90.826 44.3714L91.4218 43.3424C89.0928 41.9941 86.2485 41.9141 83.9011 42.0208L83.9551 43.2087ZM90.826 44.3714L90.1876 45.3746C91.0384 45.916 91.707 46.9773 91.8706 48.0405L93.0458 47.8597L94.2211 47.6789C93.9618 45.9938 92.9391 44.3067 91.4644 43.3683L90.826 44.3714ZM93.0458 47.8597L91.8969 48.1661C92.2679 49.5573 92.1739 50.9207 92.1739 52.7222H93.3629H94.552C94.552 51.1411 94.6694 49.3333 94.1947 47.5534L93.0458 47.8597ZM93.3629 52.7222L93.4169 53.91C95.7271 53.805 98.0585 53.9383 99.7438 54.914L100.34 53.885L100.935 52.8559C98.6037 51.5061 95.6498 51.428 93.309 51.5344L93.3629 52.7222ZM100.34 53.885L99.7011 54.8881C100.488 55.3889 101.117 56.515 101.401 57.7463L102.559 57.479L103.718 57.2116C103.368 55.6946 102.517 53.8609 100.978 52.8818L100.34 53.885ZM102.559 57.479L101.393 57.7122C101.477 58.1311 101.549 59.0775 101.599 60.3981C101.648 61.6825 101.674 63.2282 101.687 64.7827C101.714 67.8955 101.687 70.9933 101.687 72.0663H102.876H104.066C104.066 71.0253 104.092 67.8864 104.065 64.7626C104.052 63.1987 104.026 61.6262 103.975 60.3076C103.927 59.0252 103.853 57.8839 103.725 57.2458L102.559 57.479ZM102.876 72.0663H101.687C101.687 80.207 101.687 88.3386 101.582 96.4689L102.771 96.4844L103.96 96.4998C104.066 88.3515 104.066 80.2044 104.066 72.0663H102.876ZM102.771 96.4844L102.73 95.296C99.6921 95.4008 96.5478 95.4008 93.4026 95.296L93.3629 96.4844L93.3233 97.6728C96.5204 97.7794 99.7185 97.7794 102.812 97.6727L102.771 96.4844ZM93.3629 96.4844H94.552V74.8147H93.3629H92.1739V96.4844H93.3629ZM93.3629 74.8147V73.6256H65.0338V74.8147V76.0038H93.3629V74.8147ZM65.0338 74.8147L63.8474 74.8938C63.9496 76.4273 63.8447 85.4218 63.8447 86.9709H65.0338H66.2229C66.2229 85.5601 66.3294 76.3733 66.2202 74.7356L65.0338 74.8147ZM65.0338 86.9709V88.1599H84.1665V86.9709V85.7818H65.0338V86.9709ZM84.1665 86.9709H82.9775V96.4844H84.1665H85.3556V86.9709H84.1665ZM84.1665 96.4844L84.0818 95.2983C82.6602 95.3999 74.1529 95.4003 72.618 95.2979L72.5389 96.4844L72.4598 97.6708C74.0961 97.7799 82.7132 97.7803 84.2513 97.6704L84.1665 96.4844ZM123.231 96.5901L123.263 95.4014L123.247 95.401H123.231V96.5901ZM117.945 96.1673L117.632 97.3144L117.645 97.3178L117.657 97.3208L117.945 96.1673ZM114.986 94.2646L115.924 93.5345L115.919 93.5281L115.914 93.5218L114.986 94.2646ZM113.928 90.3534H115.118V90.2794L115.108 90.206L113.928 90.3534ZM113.823 52.5108V51.3217H112.634V52.5108H113.823ZM123.125 52.5108V53.6999H124.314V52.5108H123.125ZM124.816 45.0057L124 44.1412L123.987 44.1529L123.975 44.1649L124.816 45.0057ZM154.837 43.103H156.026V41.9139H154.837V43.103ZM154.837 52.5108V53.6999H156.026V52.5108H154.837ZM123.231 52.5108L123.263 51.3222L122.042 51.2891V52.5108H123.231ZM123.231 87.0766H122.042V88.2656H123.231V87.0766ZM154.942 87.0766H156.131V85.8875H154.942V87.0766ZM154.942 96.5901L154.974 97.7787L156.131 97.7474V96.5901H154.942ZM123.231 96.5901V95.401C121.405 95.401 119.758 95.3948 118.234 95.0137L117.945 96.1673L117.657 97.3208C119.515 97.7853 121.462 97.7792 123.231 97.7792V96.5901ZM117.945 96.1673L118.258 95.0201C117.302 94.7594 116.482 94.2514 115.924 93.5345L114.986 94.2646L114.047 94.9946C114.969 96.1804 116.263 96.9409 117.632 97.3144L117.945 96.1673ZM114.986 94.2646L115.914 93.5218C115.332 92.7936 115.118 91.6629 115.118 90.3534H113.928H112.739C112.739 91.7924 112.948 93.6214 114.057 95.0074L114.986 94.2646ZM113.928 90.3534L115.108 90.206C115.066 89.87 115.039 88.562 115.025 87.1182C115.012 85.7237 115.012 84.328 115.012 83.9054H113.823H112.634C112.634 84.3284 112.634 85.7339 112.647 87.1406C112.66 88.498 112.685 89.9912 112.749 90.5009L113.928 90.3534ZM113.823 83.9054H115.012V52.5108H113.823H112.634V83.9054H113.823ZM113.823 52.5108V53.6999H123.125V52.5108V51.3217H113.823V52.5108ZM123.125 52.5108H124.314C124.314 51.2021 124.291 49.8817 124.473 48.6554C124.654 47.4337 125.018 46.4855 125.657 45.8465L124.816 45.0057L123.975 44.1649C122.817 45.3229 122.335 46.8587 122.12 48.3061C121.906 49.7489 121.936 51.2825 121.936 52.5108H123.125ZM124.816 45.0057L125.633 45.8701C126.352 45.1909 127.368 44.7794 128.613 44.5498C129.856 44.3204 131.213 44.292 132.533 44.292V43.103V41.9139C131.21 41.9139 129.659 41.9384 128.181 42.2111C126.704 42.4837 125.183 43.0234 124 44.1412L124.816 45.0057ZM132.533 43.103V44.292H154.837V43.103V41.9139H132.533V43.103ZM154.837 43.103H153.648V52.5108H154.837H156.026V43.103H154.837ZM154.837 52.5108V51.3217C150.898 51.3217 127.153 51.4273 123.263 51.3222L123.231 52.5108L123.198 53.6994C127.131 53.8057 150.953 53.6999 154.837 53.6999V52.5108ZM123.231 52.5108H122.042V87.0766H123.231H124.42V52.5108H123.231ZM123.231 87.0766V88.2656H154.942V87.0766V85.8875H123.231V87.0766ZM154.942 87.0766H153.753V96.5901H154.942H156.131V87.0766H154.942ZM154.942 96.5901L154.91 95.4014C151.02 95.5066 127.152 95.5066 123.263 95.4014L123.231 96.5901L123.198 97.7787C127.131 97.885 151.042 97.885 154.974 97.7787L154.942 96.5901ZM173.955 96.5901V97.7792H175.144V96.5901H173.955ZM164.548 96.5901H163.358V97.7792H164.548V96.5901ZM164.548 22.4904V21.3013H163.358V22.4904H164.548ZM173.955 22.4904H175.144V21.3013H173.955V22.4904ZM195.942 96.5901H194.753V97.7792H195.942V96.5901ZM195.942 71.4321H197.131V70.243H195.942V71.4321ZM173.955 71.4321H172.766V72.6212H173.955V71.4321ZM173.955 61.9186V60.7295H172.766V61.9186H173.955ZM195.942 61.9186V63.1077H197.131V61.9186H195.942ZM195.942 43.103V41.9139H194.753V43.103H195.942ZM205.456 43.103H206.645V41.9139H205.456V43.103ZM205.35 56.5276L204.179 56.3209L204.177 56.3321L205.35 56.5276ZM203.764 60.1216L202.974 59.2329L202.948 59.2561L202.924 59.2808L203.764 60.1216ZM196.048 62.0243L196.095 60.8362L194.859 60.7867V62.0243H196.048ZM196.048 71.4321H194.859V72.6978L196.122 72.6189L196.048 71.4321ZM201.227 71.8549L201.577 70.7184L201.547 70.7091L201.516 70.7014L201.227 71.8549ZM204.716 74.6033L203.636 75.1016L203.644 75.1184L203.652 75.1351L204.716 74.6033ZM205.456 96.5901V97.7792H206.584L206.643 96.6526L205.456 96.5901ZM173.955 96.5901V95.401H164.548V96.5901V97.7792H173.955V96.5901ZM164.548 96.5901H165.737V22.4904H164.548H163.358V96.5901H164.548ZM164.548 22.4904V23.6794H173.955V22.4904V21.3013H164.548V22.4904ZM173.955 22.4904H172.766V96.5901H173.955H175.144V22.4904H173.955ZM195.942 96.5901H197.131V71.4321H195.942H194.753V96.5901H195.942ZM195.942 71.4321V70.243H173.955V71.4321V72.6212H195.942V71.4321ZM173.955 71.4321H175.144V61.9186H173.955H172.766V71.4321H173.955ZM173.955 61.9186V63.1077H195.942V61.9186V60.7295H173.955V61.9186ZM195.942 61.9186H197.131V43.103H195.942H194.753V61.9186H195.942ZM195.942 43.103V44.292H205.456V43.103V41.9139H195.942V43.103ZM205.456 43.103H204.267C204.267 44.0371 204.32 47.0157 204.333 49.8604C204.339 51.3037 204.336 52.7356 204.311 53.9148C204.286 55.1332 204.239 55.9798 204.179 56.321L205.35 56.5276L206.521 56.7342C206.619 56.1769 206.665 55.134 206.689 53.9641C206.714 52.7551 206.717 51.2998 206.711 49.8495C206.697 46.9068 206.645 44.0715 206.645 43.103H205.456ZM205.35 56.5276L204.177 56.3321C203.969 57.5821 203.591 58.6843 202.974 59.2329L203.764 60.1216L204.554 61.0103C205.84 59.8676 206.308 58.01 206.523 56.7231L205.35 56.5276ZM203.764 60.1216L202.924 59.2808C202.203 60.0012 201.193 60.4307 199.968 60.6568C198.741 60.8831 197.395 60.8882 196.095 60.8362L196.048 62.0243L196 63.2124C197.344 63.2662 198.904 63.2712 200.399 62.9954C201.896 62.7194 203.423 62.1447 204.605 60.9624L203.764 60.1216ZM196.048 62.0243H194.859V71.4321H196.048H197.237V62.0243H196.048ZM196.048 71.4321L196.122 72.6189C197.718 72.5191 199.389 72.6211 200.939 73.0085L201.227 71.8549L201.516 70.7014C199.683 70.2431 197.76 70.1337 195.974 70.2454L196.048 71.4321ZM201.227 71.8549L200.878 72.9914C202.07 73.3584 203.195 74.1467 203.636 75.1016L204.716 74.6033L205.795 74.105C204.968 72.3115 203.133 71.1972 201.577 70.7184L201.227 71.8549ZM204.716 74.6033L203.652 75.1351C204.031 75.893 204.195 76.7241 204.256 77.6655C204.319 78.6477 204.267 79.5943 204.267 80.7342H205.456H206.645C206.645 79.76 206.698 78.5925 206.629 77.5134C206.557 76.3936 206.352 75.2162 205.779 74.0715L204.716 74.6033ZM205.456 80.7342H204.267C204.267 82.6911 204.372 94.5604 204.268 96.5276L205.456 96.5901L206.643 96.6526C206.751 94.603 206.645 82.5827 206.645 80.7342H205.456ZM205.456 96.5901V95.401H195.942V96.5901V97.7792H205.456V96.5901Z" fill="white" mask="url(#path-1-outside-1_14_9460)"/>
<mask id="path-3-outside-2_14_9460" maskUnits="userSpaceOnUse" x="215" y="33" width="285" height="85" fill="black">
<rect fill="white" x="215" y="33" width="285" height="85"/>
<path d="M258.185 52.0835C258.185 61.597 245.5 71.2162 226.05 71.4276C225.628 73.5417 225.311 75.7616 225.311 77.8757C225.311 85.5922 229.644 87.812 234.296 87.812C238.841 87.812 243.386 85.0637 247.297 78.5099L250.574 79.3555C248.354 85.2751 242.223 96.4799 231.124 96.4799C222.774 96.4799 216.748 92.2517 216.748 81.364C216.748 65.8252 230.384 43.627 247.086 43.627C253.323 43.627 258.185 45.6354 258.185 52.0835ZM243.703 49.018C237.467 49.018 230.384 57.8973 227.108 67.6222C240.426 66.1423 247.614 58.5315 247.614 52.8234C247.614 50.1808 246.135 49.018 243.703 49.018ZM269.323 96.4799C264.249 96.4799 261.078 93.3087 261.078 88.0234C261.078 85.5922 261.818 82.5267 263.298 79.0384L272.811 57.5802C273.763 55.6775 274.08 54.3033 274.08 53.4576C274.08 52.1892 273.445 51.7664 272.6 51.7664C270.697 51.7664 268.266 54.1976 264.883 60.0114L261.606 59.06C265.518 50.6036 270.38 43.627 277.145 43.627C280.739 43.627 283.593 45.2126 283.593 49.5465C283.593 51.5549 282.536 55.0432 280.951 58.7429L271.966 78.7213C270.591 81.6811 270.169 83.7952 270.169 85.1694C270.169 87.6006 271.754 88.3405 273.445 88.3405C283.065 88.3405 295.749 63.2883 301.986 44.8955H310.125L298.603 82.421C298.181 84.0066 297.969 85.1694 297.969 86.015C297.969 87.2835 298.498 87.812 299.555 87.812C301.352 87.812 303.572 85.3808 306.954 79.4613L310.231 80.5183C306.32 88.9748 301.775 95.9514 295.009 95.9514C291.944 95.9514 289.301 94.0486 289.301 90.2432C289.301 86.5435 290.147 83.7952 297.969 65.4024H296.384C285.284 87.7063 278.731 96.4799 269.323 96.4799ZM325.122 95H316.983L327.976 58.2144C328.822 55.2546 329.139 54.0919 329.139 53.3519C329.139 52.1892 328.611 51.7664 327.659 51.7664C325.862 51.7664 323.537 54.1976 320.154 60.0114L316.877 59.06C320.788 50.6036 325.651 43.627 332.416 43.627C336.01 43.627 338.547 45.1069 338.547 49.4408C338.547 52.8234 336.539 57.6859 328.928 74.5988H330.513C337.701 60.6456 343.409 51.7664 346.581 48.3838C349.223 45.1069 351.654 43.627 354.614 43.627C357.68 43.627 361.168 45.6354 361.168 50.1808C361.168 54.3033 359.054 57.6859 355.248 57.6859C353.346 57.6859 352.5 57.0516 351.866 56.1003C351.02 54.9375 350.597 53.1405 349.223 51.8721C341.507 58.8486 331.359 76.7129 325.122 95ZM373.341 96.4799C364.779 96.4799 357.591 92.3574 357.591 80.5183C357.591 72.9075 360.55 64.2396 365.307 56.9459C369.958 49.7579 376.3 43.627 386.237 43.627C394.799 43.627 402.093 47.7495 402.093 59.5886C402.093 67.1994 399.027 75.8673 394.27 83.161C389.619 90.3489 383.277 96.4799 373.341 96.4799ZM372.178 92.1459C378.626 92.1459 383.488 84.8522 387.188 77.1357C391.416 68.045 393.108 60.3285 393.108 55.4661C393.108 50.0751 390.994 47.9609 387.505 47.9609C381.057 47.9609 376.089 55.2546 372.495 62.9712C368.161 72.0619 366.47 79.7784 366.47 84.6408C366.47 90.0318 368.584 92.1459 372.178 92.1459ZM416.624 95.1057L413.664 104.619C411.233 112.124 413.136 112.653 422.861 113.71L422.015 116.775H395.06L395.906 113.71C401.085 112.97 402.988 112.23 406.053 102.611L420.746 55.9946L408.802 61.0685L411.127 53.5633L422.966 49.1237L427.089 36.0162L435.651 35.2763L431.634 47.9609C434.277 45.6354 437.659 43.627 441.676 43.627C447.596 43.627 452.881 48.0666 452.881 58.2144C452.881 76.5015 438.188 95.5285 421.064 95.5285C419.689 95.5285 418.209 95.4228 416.624 95.1057ZM434.594 51.0264C433.008 51.0264 431.74 51.2378 430.471 51.5549L418.104 90.4547C419.161 90.6661 420.112 90.7718 421.275 90.7718C435.545 90.7718 443.896 73.8589 443.896 62.5483C443.896 54.9375 440.196 51.0264 434.594 51.0264ZM498.377 52.0835C498.377 61.597 485.692 71.2162 466.242 71.4276C465.819 73.5417 465.502 75.7616 465.502 77.8757C465.502 85.5922 469.836 87.812 474.487 87.812C479.032 87.812 483.578 85.0637 487.489 78.5099L490.766 79.3555C488.546 85.2751 482.415 96.4799 471.316 96.4799C462.965 96.4799 456.94 92.2517 456.94 81.364C456.94 65.8252 470.576 43.627 487.277 43.627C493.514 43.627 498.377 45.6354 498.377 52.0835ZM483.895 49.018C477.658 49.018 470.576 57.8973 467.299 67.6222C480.618 66.1423 487.806 58.5315 487.806 52.8234C487.806 50.1808 486.326 49.018 483.895 49.018Z"/>
</mask>
<path d="M258.185 52.0835C258.185 61.597 245.5 71.2162 226.05 71.4276C225.628 73.5417 225.311 75.7616 225.311 77.8757C225.311 85.5922 229.644 87.812 234.296 87.812C238.841 87.812 243.386 85.0637 247.297 78.5099L250.574 79.3555C248.354 85.2751 242.223 96.4799 231.124 96.4799C222.774 96.4799 216.748 92.2517 216.748 81.364C216.748 65.8252 230.384 43.627 247.086 43.627C253.323 43.627 258.185 45.6354 258.185 52.0835ZM243.703 49.018C237.467 49.018 230.384 57.8973 227.108 67.6222C240.426 66.1423 247.614 58.5315 247.614 52.8234C247.614 50.1808 246.135 49.018 243.703 49.018ZM269.323 96.4799C264.249 96.4799 261.078 93.3087 261.078 88.0234C261.078 85.5922 261.818 82.5267 263.298 79.0384L272.811 57.5802C273.763 55.6775 274.08 54.3033 274.08 53.4576C274.08 52.1892 273.445 51.7664 272.6 51.7664C270.697 51.7664 268.266 54.1976 264.883 60.0114L261.606 59.06C265.518 50.6036 270.38 43.627 277.145 43.627C280.739 43.627 283.593 45.2126 283.593 49.5465C283.593 51.5549 282.536 55.0432 280.951 58.7429L271.966 78.7213C270.591 81.6811 270.169 83.7952 270.169 85.1694C270.169 87.6006 271.754 88.3405 273.445 88.3405C283.065 88.3405 295.749 63.2883 301.986 44.8955H310.125L298.603 82.421C298.181 84.0066 297.969 85.1694 297.969 86.015C297.969 87.2835 298.498 87.812 299.555 87.812C301.352 87.812 303.572 85.3808 306.954 79.4613L310.231 80.5183C306.32 88.9748 301.775 95.9514 295.009 95.9514C291.944 95.9514 289.301 94.0486 289.301 90.2432C289.301 86.5435 290.147 83.7952 297.969 65.4024H296.384C285.284 87.7063 278.731 96.4799 269.323 96.4799ZM325.122 95H316.983L327.976 58.2144C328.822 55.2546 329.139 54.0919 329.139 53.3519C329.139 52.1892 328.611 51.7664 327.659 51.7664C325.862 51.7664 323.537 54.1976 320.154 60.0114L316.877 59.06C320.788 50.6036 325.651 43.627 332.416 43.627C336.01 43.627 338.547 45.1069 338.547 49.4408C338.547 52.8234 336.539 57.6859 328.928 74.5988H330.513C337.701 60.6456 343.409 51.7664 346.581 48.3838C349.223 45.1069 351.654 43.627 354.614 43.627C357.68 43.627 361.168 45.6354 361.168 50.1808C361.168 54.3033 359.054 57.6859 355.248 57.6859C353.346 57.6859 352.5 57.0516 351.866 56.1003C351.02 54.9375 350.597 53.1405 349.223 51.8721C341.507 58.8486 331.359 76.7129 325.122 95ZM373.341 96.4799C364.779 96.4799 357.591 92.3574 357.591 80.5183C357.591 72.9075 360.55 64.2396 365.307 56.9459C369.958 49.7579 376.3 43.627 386.237 43.627C394.799 43.627 402.093 47.7495 402.093 59.5886C402.093 67.1994 399.027 75.8673 394.27 83.161C389.619 90.3489 383.277 96.4799 373.341 96.4799ZM372.178 92.1459C378.626 92.1459 383.488 84.8522 387.188 77.1357C391.416 68.045 393.108 60.3285 393.108 55.4661C393.108 50.0751 390.994 47.9609 387.505 47.9609C381.057 47.9609 376.089 55.2546 372.495 62.9712C368.161 72.0619 366.47 79.7784 366.47 84.6408C366.47 90.0318 368.584 92.1459 372.178 92.1459ZM416.624 95.1057L413.664 104.619C411.233 112.124 413.136 112.653 422.861 113.71L422.015 116.775H395.06L395.906 113.71C401.085 112.97 402.988 112.23 406.053 102.611L420.746 55.9946L408.802 61.0685L411.127 53.5633L422.966 49.1237L427.089 36.0162L435.651 35.2763L431.634 47.9609C434.277 45.6354 437.659 43.627 441.676 43.627C447.596 43.627 452.881 48.0666 452.881 58.2144C452.881 76.5015 438.188 95.5285 421.064 95.5285C419.689 95.5285 418.209 95.4228 416.624 95.1057ZM434.594 51.0264C433.008 51.0264 431.74 51.2378 430.471 51.5549L418.104 90.4547C419.161 90.6661 420.112 90.7718 421.275 90.7718C435.545 90.7718 443.896 73.8589 443.896 62.5483C443.896 54.9375 440.196 51.0264 434.594 51.0264ZM498.377 52.0835C498.377 61.597 485.692 71.2162 466.242 71.4276C465.819 73.5417 465.502 75.7616 465.502 77.8757C465.502 85.5922 469.836 87.812 474.487 87.812C479.032 87.812 483.578 85.0637 487.489 78.5099L490.766 79.3555C488.546 85.2751 482.415 96.4799 471.316 96.4799C462.965 96.4799 456.94 92.2517 456.94 81.364C456.94 65.8252 470.576 43.627 487.277 43.627C493.514 43.627 498.377 45.6354 498.377 52.0835ZM483.895 49.018C477.658 49.018 470.576 57.8973 467.299 67.6222C480.618 66.1423 487.806 58.5315 487.806 52.8234C487.806 50.1808 486.326 49.018 483.895 49.018Z" fill="white"/>
<path d="M226.05 71.4276L226.038 70.2386L225.074 70.2491L224.884 71.1944L226.05 71.4276ZM247.297 78.5099L247.594 77.3586L246.732 77.1361L246.276 77.9006L247.297 78.5099ZM250.574 79.3556L251.688 79.7731L252.152 78.5347L250.871 78.2042L250.574 79.3556ZM227.108 67.6222L225.981 67.2425L225.385 69.01L227.239 68.804L227.108 67.6222ZM258.185 52.0835H256.996C256.996 56.2896 254.175 60.7498 248.766 64.2451C243.384 67.7233 235.579 70.1349 226.038 70.2386L226.05 71.4276L226.063 72.6166C235.972 72.5089 244.234 70.0052 250.057 66.2425C255.853 62.497 259.374 57.3908 259.374 52.0835H258.185ZM226.05 71.4276L224.884 71.1944C224.454 73.3459 224.121 75.6513 224.121 77.8757H225.311H226.5C226.5 75.8718 226.801 73.7376 227.216 71.6608L226.05 71.4276ZM225.311 77.8757H224.121C224.121 81.9556 225.273 84.8049 227.257 86.6158C229.22 88.4076 231.802 89.0011 234.296 89.0011V87.812V86.6229C232.138 86.6229 230.227 86.1065 228.86 84.8593C227.515 83.6311 226.5 81.5123 226.5 77.8757H225.311ZM234.296 87.812V89.0011C239.403 89.0011 244.278 85.889 248.318 79.1192L247.297 78.5099L246.276 77.9006C242.494 84.2384 238.278 86.6229 234.296 86.6229V87.812ZM247.297 78.5099L247 79.6613L250.277 80.5069L250.574 79.3556L250.871 78.2042L247.594 77.3586L247.297 78.5099ZM250.574 79.3556L249.461 78.938C248.383 81.8134 246.361 85.9471 243.296 89.3406C240.241 92.7242 236.231 95.2908 231.124 95.2908V96.4799V97.6689C237.117 97.6689 241.722 94.6332 245.062 90.9344C248.392 87.2456 250.546 82.8172 251.688 79.7731L250.574 79.3556ZM231.124 96.4799V95.2908C227.134 95.2908 223.879 94.2809 221.623 92.142C219.379 90.0145 217.937 86.5917 217.937 81.364H216.748H215.559C215.559 87.0239 217.13 91.1591 219.987 93.8677C222.831 96.5647 226.763 97.6689 231.124 97.6689V96.4799ZM216.748 81.364H217.937C217.937 73.895 221.235 64.7016 226.613 57.3718C232.002 50.0265 239.275 44.8161 247.086 44.8161V43.627V42.4379C238.195 42.4379 230.3 48.3266 224.695 55.9651C219.08 63.6191 215.559 73.2942 215.559 81.364H216.748ZM247.086 43.627V44.8161C250.115 44.8161 252.613 45.311 254.322 46.4316C255.942 47.4936 256.996 49.2097 256.996 52.0835H258.185H259.374C259.374 48.5092 257.997 45.997 255.626 44.4428C253.345 42.9472 250.293 42.4379 247.086 42.4379V43.627ZM243.703 49.018V47.8289C240.053 47.8289 236.421 50.3849 233.395 53.8971C230.323 57.462 227.662 62.2519 225.981 67.2425L227.108 67.6222L228.234 68.0019C229.83 63.2676 232.348 58.7554 235.196 55.4494C238.09 52.0907 241.117 50.2071 243.703 50.2071V49.018ZM227.108 67.6222L227.239 68.804C234.094 68.0423 239.443 65.6947 243.104 62.7328C246.734 59.7952 248.803 56.1577 248.803 52.8234H247.614H246.425C246.425 55.1972 244.901 58.2192 241.608 60.884C238.344 63.5244 233.44 65.7223 226.976 66.4404L227.108 67.6222ZM247.614 52.8234H248.803C248.803 51.2822 248.366 49.9678 247.376 49.0553C246.404 48.1593 245.089 47.8289 243.703 47.8289V49.018V50.2071C244.749 50.2071 245.389 50.4581 245.765 50.8041C246.122 51.1337 246.425 51.7219 246.425 52.8234H247.614ZM263.298 79.0384L262.211 78.5565L262.207 78.5652L262.203 78.574L263.298 79.0384ZM272.811 57.5802L271.748 57.0484L271.735 57.073L271.724 57.0982L272.811 57.5802ZM264.883 60.0114L264.552 61.1533L265.444 61.4123L265.911 60.6094L264.883 60.0114ZM261.606 59.06L260.527 58.5609L259.947 59.8163L261.275 60.202L261.606 59.06ZM280.951 58.7429L282.035 59.2306L282.039 59.221L282.043 59.2113L280.951 58.7429ZM271.966 78.7213L273.044 79.222L273.047 79.2156L273.05 79.209L271.966 78.7213ZM301.986 44.8955V43.7064H301.134L300.86 44.5136L301.986 44.8955ZM310.125 44.8955L311.262 45.2445L311.734 43.7064H310.125V44.8955ZM298.603 82.421L297.467 82.072L297.46 82.0932L297.454 82.1146L298.603 82.421ZM306.954 79.4613L307.319 78.3296L306.401 78.0333L305.922 78.8713L306.954 79.4613ZM310.231 80.5183L311.31 81.0175L311.874 79.7989L310.596 79.3867L310.231 80.5183ZM297.969 65.4024L299.063 65.8678L299.767 64.2133H297.969V65.4024ZM296.384 65.4024V64.2133H295.647L295.319 64.8726L296.384 65.4024ZM269.323 96.4799V95.2908C267.037 95.2908 265.306 94.582 264.146 93.4006C262.984 92.2169 262.267 90.428 262.267 88.0234H261.078H259.889C259.889 90.9042 260.757 93.3435 262.449 95.0667C264.143 96.7921 266.535 97.6689 269.323 97.6689V96.4799ZM261.078 88.0234H262.267C262.267 85.8104 262.947 82.91 264.392 79.5028L263.298 79.0384L262.203 78.574C260.689 82.1434 259.889 85.374 259.889 88.0234H261.078ZM263.298 79.0384L264.385 79.5204L273.898 58.0621L272.811 57.5802L271.724 57.0982L262.211 78.5565L263.298 79.0384ZM272.811 57.5802L273.875 58.1119C274.869 56.1229 275.269 54.5594 275.269 53.4576H274.08H272.891C272.891 54.0472 272.656 55.232 271.748 57.0484L272.811 57.5802ZM274.08 53.4576H275.269C275.269 52.6401 275.064 51.8614 274.498 51.2955C273.932 50.7296 273.206 50.5773 272.6 50.5773V51.7663V52.9554C272.839 52.9554 272.853 53.0145 272.816 52.9771C272.779 52.9397 272.891 53.0067 272.891 53.4576H274.08ZM272.6 51.7663V50.5773C271.144 50.5773 269.764 51.4913 268.435 52.8895C267.072 54.3229 265.564 56.4764 263.856 59.4134L264.883 60.0114L265.911 60.6094C267.585 57.7326 268.984 55.7636 270.158 54.5279C271.366 53.257 272.153 52.9554 272.6 52.9554V51.7663ZM264.883 60.0114L265.215 58.8695L261.938 57.9181L261.606 59.06L261.275 60.202L264.552 61.1533L264.883 60.0114ZM261.606 59.06L262.686 59.5592C264.623 55.3693 266.756 51.6403 269.185 48.9728C271.605 46.3143 274.217 44.8161 277.145 44.8161V43.627V42.4379C273.308 42.4379 270.106 44.428 267.426 47.3719C264.754 50.3068 262.5 54.2943 260.527 58.5609L261.606 59.06ZM277.145 43.627V44.8161C278.793 44.8161 280.098 45.183 280.97 45.887C281.798 46.5547 282.404 47.6613 282.404 49.5465H283.593H284.782C284.782 47.0978 283.961 45.2447 282.464 44.0361C281.011 42.8638 279.092 42.4379 277.145 42.4379V43.627ZM283.593 49.5465H282.404C282.404 50.3811 282.177 51.6268 281.725 53.1776C281.279 54.707 280.636 56.458 279.858 58.2745L280.951 58.7429L282.043 59.2113C282.851 57.3281 283.529 55.4852 284.008 53.8434C284.481 52.223 284.782 50.7204 284.782 49.5465H283.593ZM280.951 58.7429L279.866 58.2552L270.881 78.2336L271.966 78.7213L273.05 79.209L282.035 59.2306L280.951 58.7429ZM271.966 78.7213L270.887 78.2206C269.467 81.2793 268.979 83.5681 268.979 85.1694H270.169H271.358C271.358 84.0223 271.716 82.0828 273.044 79.222L271.966 78.7213ZM270.169 85.1694H268.979C268.979 86.6638 269.481 87.8321 270.428 88.5932C271.327 89.3165 272.453 89.5296 273.445 89.5296V88.3405V87.1515C272.746 87.1515 272.234 86.9947 271.918 86.7401C271.649 86.5234 271.358 86.1062 271.358 85.1694H270.169ZM273.445 88.3405V89.5296C276.342 89.5296 279.231 87.6715 281.926 84.9801C284.662 82.2476 287.402 78.4501 290.003 74.1285C295.21 65.4775 299.973 54.5349 303.112 45.2773L301.986 44.8955L300.86 44.5136C297.762 53.6488 293.065 64.4288 287.965 72.9022C285.413 77.1427 282.789 80.7578 280.246 83.2974C277.662 85.8781 275.359 87.1515 273.445 87.1515V88.3405ZM301.986 44.8955V46.0845H310.125V44.8955V43.7064H301.986V44.8955ZM310.125 44.8955L308.989 44.5465L297.467 82.072L298.603 82.421L299.74 82.77L311.262 45.2445L310.125 44.8955ZM298.603 82.421L297.454 82.1146C297.027 83.7174 296.78 85.0057 296.78 86.015H297.969H299.158C299.158 85.333 299.334 84.2958 299.752 82.7274L298.603 82.421ZM297.969 86.015H296.78C296.78 86.7812 296.935 87.5827 297.486 88.189C298.06 88.8207 298.842 89.0011 299.555 89.0011V87.812V86.6229C299.211 86.6229 299.2 86.5391 299.245 86.5893C299.268 86.6143 299.158 86.5173 299.158 86.015H297.969ZM299.555 87.812V89.0011C300.993 89.0011 302.301 88.0452 303.547 86.648C304.834 85.2056 306.284 83.031 307.987 80.0512L306.954 79.4613L305.922 78.8713C304.242 81.811 302.891 83.8118 301.773 85.0649C300.614 86.3632 299.914 86.6229 299.555 86.6229V87.812ZM306.954 79.4613L306.589 80.5929L309.866 81.65L310.231 80.5183L310.596 79.3867L307.319 78.3296L306.954 79.4613ZM310.231 80.5183L309.152 80.0192C307.208 84.2229 305.152 87.952 302.799 90.6194C300.459 93.2724 297.93 94.7623 295.009 94.7623V95.9514V97.1404C298.854 97.1404 301.981 95.142 304.582 92.1926C307.171 89.2576 309.343 85.2702 311.31 81.0175L310.231 80.5183ZM295.009 95.9514V94.7623C293.715 94.7623 292.592 94.3615 291.807 93.6455C291.039 92.9457 290.49 91.8524 290.49 90.2432H289.301H288.112C288.112 92.4395 288.885 94.2003 290.205 95.4032C291.507 96.5898 293.238 97.1404 295.009 97.1404V95.9514ZM289.301 90.2432H290.49C290.49 86.8468 291.194 84.3705 299.063 65.8678L297.969 65.4024L296.875 64.937C289.099 83.2199 288.112 86.2403 288.112 90.2432H289.301ZM297.969 65.4024V64.2133H296.384V65.4024V66.5915H297.969V65.4024ZM296.384 65.4024L295.319 64.8726C289.768 76.0275 285.41 83.6784 281.31 88.5384C277.248 93.3547 273.561 95.2908 269.323 95.2908V96.4799V97.6689C274.492 97.6689 278.787 95.2182 283.128 90.0718C287.432 84.9691 291.9 77.0811 297.448 65.9321L296.384 65.4024ZM325.122 95V96.1891H325.973L326.248 95.3838L325.122 95ZM316.983 95L315.844 94.6595L315.387 96.1891H316.983V95ZM327.976 58.2144L329.116 58.5549L329.118 58.548L329.12 58.5411L327.976 58.2144ZM320.154 60.0114L319.823 61.1533L320.715 61.4123L321.182 60.6094L320.154 60.0114ZM316.877 59.06L315.798 58.5609L315.217 59.8163L316.546 60.202L316.877 59.06ZM328.928 74.5988L327.843 74.1108L327.089 75.7879H328.928V74.5988ZM330.513 74.5988V75.7879H331.238L331.57 75.1433L330.513 74.5988ZM346.581 48.3838L347.448 49.197L347.478 49.1647L347.506 49.1302L346.581 48.3838ZM351.866 56.1003L352.855 55.4407L352.842 55.4205L352.828 55.4009L351.866 56.1003ZM349.223 51.8721L350.03 50.9983L349.232 50.2615L348.426 50.99L349.223 51.8721ZM325.122 95V93.8109H316.983V95V96.1891H325.122V95ZM316.983 95L318.122 95.3405L329.116 58.5549L327.976 58.2144L326.837 57.8739L315.844 94.6595L316.983 95ZM327.976 58.2144L329.12 58.5411C329.541 57.0676 329.838 56.0136 330.03 55.2344C330.218 54.4684 330.328 53.8746 330.328 53.3519H329.139H327.95C327.95 53.5692 327.902 53.9268 327.72 54.6671C327.542 55.3942 327.258 56.4014 326.833 57.8877L327.976 58.2144ZM329.139 53.3519H330.328C330.328 52.6172 330.164 51.8494 329.597 51.2823C329.028 50.7137 328.285 50.5773 327.659 50.5773V51.7663V52.9554C327.985 52.9554 327.982 53.0304 327.915 52.9639C327.85 52.8989 327.95 52.9239 327.95 53.3519H329.139ZM327.659 51.7663V50.5773C326.233 50.5773 324.901 51.5197 323.627 52.9033C322.31 54.3327 320.832 56.4814 319.126 59.4134L320.154 60.0114L321.182 60.6094C322.859 57.7276 324.235 55.7538 325.376 54.5141C326.56 53.2286 327.289 52.9554 327.659 52.9554V51.7663ZM320.154 60.0114L320.486 58.8695L317.209 57.9181L316.877 59.06L316.546 60.202L319.823 61.1533L320.154 60.0114ZM316.877 59.06L317.957 59.5592C319.894 55.3693 322.027 51.6403 324.456 48.9728C326.876 46.3143 329.488 44.8161 332.416 44.8161V43.627V42.4379C328.579 42.4379 325.377 44.428 322.697 47.3719C320.025 50.3068 317.771 54.2943 315.798 58.5609L316.877 59.06ZM332.416 43.627V44.8161C334.08 44.8161 335.285 45.1634 336.064 45.8185C336.802 46.4399 337.358 47.5107 337.358 49.4408H338.547H339.736C339.736 47.037 339.023 45.2009 337.595 43.9989C336.206 42.8305 334.346 42.4379 332.416 42.4379V43.627ZM338.547 49.4408H337.358C337.358 50.8969 336.929 52.7827 335.483 56.5165C334.043 60.2334 331.653 65.6461 327.843 74.1108L328.928 74.5988L330.012 75.0867C333.814 66.6386 336.233 61.1635 337.7 57.3754C339.161 53.604 339.736 51.3673 339.736 49.4408H338.547ZM328.928 74.5988V75.7879H330.513V74.5988V73.4097H328.928V74.5988ZM330.513 74.5988L331.57 75.1433C338.76 61.1863 344.403 52.4449 347.448 49.197L346.581 48.3838L345.713 47.5705C342.416 51.0878 336.642 60.105 329.456 74.0543L330.513 74.5988ZM346.581 48.3838L347.506 49.1302C350.033 45.9965 352.159 44.8161 354.614 44.8161V43.627V42.4379C351.15 42.4379 348.413 44.2173 345.655 47.6373L346.581 48.3838ZM354.614 43.627V44.8161C355.905 44.8161 357.258 45.2423 358.269 46.1042C359.25 46.9407 359.979 48.244 359.979 50.1808H361.168H362.357C362.357 47.5721 361.342 45.5986 359.812 44.2946C358.313 43.0159 356.389 42.4379 354.614 42.4379V43.627ZM361.168 50.1808H359.979C359.979 52.0552 359.496 53.665 358.678 54.7733C357.885 55.8481 356.752 56.4968 355.248 56.4968V57.6859V58.8749C357.55 58.8749 359.377 57.8324 360.592 56.1853C361.783 54.5716 362.357 52.4289 362.357 50.1808H361.168ZM355.248 57.6859V56.4968C354.426 56.4968 353.944 56.3595 353.634 56.197C353.335 56.0398 353.101 55.809 352.855 55.4407L351.866 56.1003L350.877 56.7599C351.265 57.343 351.771 57.9049 352.529 58.3026C353.276 58.6952 354.168 58.8749 355.248 58.8749V57.6859ZM351.866 56.1003L352.828 55.4009C352.479 54.9211 352.239 54.3451 351.803 53.4866C351.402 52.6985 350.875 51.7789 350.03 50.9983L349.223 51.8721L348.417 52.7458C348.945 53.2337 349.318 53.8468 349.683 54.565C350.013 55.2128 350.408 56.1167 350.904 56.7997L351.866 56.1003ZM349.223 51.8721L348.426 50.99C344.425 54.6073 339.884 60.9498 335.581 68.6124C331.265 76.2989 327.139 85.4031 323.997 94.6162L325.122 95L326.248 95.3838C329.342 86.3099 333.409 77.3383 337.655 69.7768C341.914 62.1914 346.305 56.1134 350.021 52.7541L349.223 51.8721ZM365.307 56.9459L366.303 57.5955L366.305 57.5919L365.307 56.9459ZM394.27 83.161L393.274 82.5114L393.272 82.515L394.27 83.161ZM387.188 77.1357L388.26 77.6498L388.266 77.6372L387.188 77.1357ZM372.495 62.9712L373.568 63.4829L373.573 63.4732L372.495 62.9712ZM373.341 96.4799V95.2908C369.23 95.2908 365.614 94.2994 363.038 92.0441C360.491 89.8143 358.78 86.1883 358.78 80.5183H357.591H356.401C356.401 86.6873 358.284 91.0421 361.471 93.8334C364.63 96.5991 368.889 97.6689 373.341 97.6689V96.4799ZM357.591 80.5183H358.78C358.78 73.1865 361.643 64.7409 366.303 57.5955L365.307 56.9459L364.311 56.2964C359.458 63.7384 356.401 72.6285 356.401 80.5183H357.591ZM365.307 56.9459L366.305 57.5919C370.869 50.5388 376.898 44.8161 386.237 44.8161V43.627V42.4379C375.703 42.4379 369.047 48.9771 364.309 56.3L365.307 56.9459ZM386.237 43.627V44.8161C390.348 44.8161 393.993 45.8077 396.596 48.0663C399.169 50.2982 400.904 53.9241 400.904 59.5886H402.093H403.282C403.282 53.414 401.37 49.0591 398.155 46.27C394.971 43.5076 390.688 42.4379 386.237 42.4379V43.627ZM402.093 59.5886H400.904C400.904 66.9117 397.94 75.3569 393.274 82.5114L394.27 83.161L395.266 83.8105C400.114 76.3776 403.282 67.487 403.282 59.5886H402.093ZM394.27 83.161L393.272 82.515C388.708 89.5681 382.68 95.2908 373.341 95.2908V96.4799V97.6689C383.874 97.6689 390.53 91.1298 395.269 83.8069L394.27 83.161ZM372.178 92.1459V93.335C375.887 93.335 379.011 91.2326 381.601 88.3255C384.197 85.4128 386.394 81.5415 388.26 77.6498L387.188 77.1357L386.116 76.6217C384.282 80.4464 382.199 84.0803 379.826 86.7435C377.448 89.4125 374.917 90.9569 372.178 90.9569V92.1459ZM387.188 77.1357L388.266 77.6372C392.541 68.4463 394.297 60.5551 394.297 55.4661H393.108H391.919C391.919 60.1019 390.292 67.6438 386.11 76.6343L387.188 77.1357ZM393.108 55.4661H394.297C394.297 52.649 393.75 50.4538 392.542 48.9478C391.292 47.3892 389.502 46.7719 387.505 46.7719V47.9609V49.15C388.997 49.15 390.008 49.5898 390.687 50.4359C391.408 51.3348 391.919 52.8921 391.919 55.4661H393.108ZM387.505 47.9609V46.7719C383.799 46.7719 380.649 48.8712 378.044 51.779C375.433 54.694 373.234 58.5678 371.417 62.4691L372.495 62.9712L373.573 63.4732C375.35 59.658 377.432 56.0267 379.816 53.3657C382.206 50.6975 384.763 49.15 387.505 49.15V47.9609ZM372.495 62.9712L371.422 62.4595C367.037 71.6557 365.281 79.5497 365.281 84.6408H366.47H367.659C367.659 80.007 369.285 72.468 373.568 63.4829L372.495 62.9712ZM366.47 84.6408H365.281C365.281 87.4571 365.827 89.6568 367.054 91.1652C368.322 92.7246 370.14 93.335 372.178 93.335V92.1459V90.9569C370.622 90.9569 369.586 90.5103 368.899 89.6648C368.17 88.7684 367.659 87.2156 367.659 84.6408H366.47ZM416.624 95.1057L416.857 93.9397L415.807 93.7297L415.488 94.7525L416.624 95.1057ZM413.664 104.619L414.795 104.986L414.799 104.972L413.664 104.619ZM422.861 113.71L424.007 114.026L424.378 112.679L422.989 112.528L422.861 113.71ZM422.015 116.775V117.964H422.92L423.161 117.092L422.015 116.775ZM395.06 116.775L393.914 116.459L393.498 117.964H395.06V116.775ZM395.906 113.71L395.737 112.533L394.966 112.643L394.759 113.394L395.906 113.71ZM406.053 102.611L407.186 102.972L407.187 102.968L406.053 102.611ZM420.746 55.9946L421.88 56.352L422.656 53.8915L420.282 54.9002L420.746 55.9946ZM408.802 61.0685L407.666 60.7165L406.907 63.1651L409.267 62.1629L408.802 61.0685ZM411.127 53.5633L410.71 52.45L410.164 52.6547L409.991 53.2114L411.127 53.5633ZM422.966 49.1237L423.384 50.2371L423.927 50.0335L424.1 49.4805L422.966 49.1237ZM427.089 36.0162L426.986 34.8315L426.193 34.9001L425.954 35.6594L427.089 36.0162ZM435.651 35.2763L436.784 35.6352L437.322 33.9384L435.549 34.0916L435.651 35.2763ZM431.634 47.9609L430.5 47.602L429.21 51.6784L432.42 48.8536L431.634 47.9609ZM430.471 51.5549L430.183 50.4014L429.539 50.5623L429.338 51.1947L430.471 51.5549ZM418.104 90.4547L416.971 90.0944L416.568 91.3601L417.871 91.6206L418.104 90.4547ZM416.624 95.1057L415.488 94.7525L412.529 104.266L413.664 104.619L414.799 104.972L417.759 95.4589L416.624 95.1057ZM413.664 104.619L412.533 104.253C411.92 106.145 411.532 107.731 411.519 109.045C411.505 110.427 411.907 111.599 412.925 112.481C413.859 113.291 415.186 113.739 416.735 114.063C418.31 114.392 420.311 114.629 422.732 114.892L422.861 113.71L422.989 112.528C420.547 112.262 418.664 112.037 417.222 111.735C415.756 111.428 414.936 111.077 414.482 110.684C414.113 110.364 413.888 109.931 413.897 109.069C413.906 108.14 414.193 106.846 414.795 104.986L413.664 104.619ZM422.861 113.71L421.714 113.394L420.869 116.459L422.015 116.775L423.161 117.092L424.007 114.026L422.861 113.71ZM422.015 116.775V115.586H395.06V116.775V117.964H422.015V116.775ZM395.06 116.775L396.206 117.092L397.052 114.026L395.906 113.71L394.759 113.394L393.914 116.459L395.06 116.775ZM395.906 113.71L396.074 114.887C398.653 114.519 400.793 114.119 402.606 112.338C404.344 110.63 405.656 107.773 407.186 102.972L406.053 102.611L404.92 102.25C403.385 107.067 402.213 109.391 400.939 110.642C399.739 111.821 398.338 112.161 395.737 112.533L395.906 113.71ZM406.053 102.611L407.187 102.968L421.88 56.352L420.746 55.9946L419.612 55.6371L404.919 102.253L406.053 102.611ZM420.746 55.9946L420.282 54.9002L408.337 59.974L408.802 61.0685L409.267 62.1629L421.211 57.089L420.746 55.9946ZM408.802 61.0685L409.937 61.4204L412.263 53.9153L411.127 53.5633L409.991 53.2114L407.666 60.7165L408.802 61.0685ZM411.127 53.5633L411.545 54.6767L423.384 50.2371L422.966 49.1237L422.549 48.0103L410.71 52.45L411.127 53.5633ZM422.966 49.1237L424.1 49.4805L428.223 36.3729L427.089 36.0162L425.954 35.6594L421.832 48.767L422.966 49.1237ZM427.089 36.0162L427.191 37.2008L435.753 36.4609L435.651 35.2763L435.549 34.0916L426.986 34.8315L427.089 36.0162ZM435.651 35.2763L434.517 34.9173L430.5 47.602L431.634 47.9609L432.768 48.3199L436.784 35.6352L435.651 35.2763ZM431.634 47.9609L432.42 48.8536C434.958 46.6194 438.07 44.8161 441.676 44.8161V43.627V42.4379C437.248 42.4379 433.595 44.6514 430.849 47.0683L431.634 47.9609ZM441.676 43.627V44.8161C444.326 44.8161 446.787 45.8019 448.6 47.8941C450.424 49.9986 451.692 53.3397 451.692 58.2144H452.881H454.07C454.07 52.9413 452.696 48.9888 450.397 46.3365C448.088 43.672 444.945 42.4379 441.676 42.4379V43.627ZM452.881 58.2144H451.692C451.692 67.0552 448.132 76.1212 442.477 82.9721C436.818 89.8273 429.173 94.3395 421.064 94.3395V95.5285V96.7176C430.079 96.7176 438.342 91.7163 444.311 84.4861C450.283 77.2518 454.07 67.6607 454.07 58.2144H452.881ZM421.064 95.5285V94.3395C419.752 94.3395 418.352 94.2386 416.857 93.9397L416.624 95.1057L416.391 96.2717C418.067 96.607 419.627 96.7176 421.064 96.7176V95.5285ZM434.594 51.0264V49.8373C432.89 49.8373 431.523 50.0664 430.183 50.4014L430.471 51.5549L430.76 52.7085C431.957 52.4093 433.126 52.2155 434.594 52.2155V51.0264ZM430.471 51.5549L429.338 51.1947L416.971 90.0944L418.104 90.4547L419.237 90.8149L431.604 51.9152L430.471 51.5549ZM418.104 90.4547L417.871 91.6206C418.999 91.8463 420.028 91.9608 421.275 91.9608V90.7718V89.5827C420.196 89.5827 419.323 89.4858 418.337 89.2887L418.104 90.4547ZM421.275 90.7718V91.9608C428.932 91.9608 434.91 87.4146 438.917 81.5743C442.919 75.7425 445.085 68.4536 445.085 62.5483H443.896H442.707C442.707 67.9535 440.698 74.7764 436.956 80.2287C433.221 85.6725 427.888 89.5827 421.275 89.5827V90.7718ZM443.896 62.5483H445.085C445.085 58.5652 444.118 55.378 442.255 53.1672C440.37 50.9299 437.69 49.8373 434.594 49.8373V51.0264V52.2155C437.1 52.2155 439.071 53.0785 440.436 54.6994C441.824 56.3469 442.707 58.9206 442.707 62.5483H443.896ZM466.242 71.4276L466.229 70.2386L465.265 70.2491L465.076 71.1944L466.242 71.4276ZM487.489 78.5099L487.786 77.3586L486.924 77.1361L486.468 77.9006L487.489 78.5099ZM490.766 79.3556L491.879 79.7731L492.343 78.5347L491.063 78.2042L490.766 79.3556ZM467.299 67.6222L466.172 67.2425L465.577 69.01L467.43 68.804L467.299 67.6222ZM498.377 52.0835H497.187C497.187 56.2896 494.366 60.7498 488.958 64.2451C483.575 67.7233 475.77 70.1349 466.229 70.2386L466.242 71.4276L466.255 72.6166C476.164 72.5089 484.426 70.0052 490.248 66.2425C496.044 62.497 499.566 57.3908 499.566 52.0835H498.377ZM466.242 71.4276L465.076 71.1944C464.646 73.3459 464.313 75.6513 464.313 77.8757H465.502H466.691C466.691 75.8718 466.993 73.7376 467.408 71.6608L466.242 71.4276ZM465.502 77.8757H464.313C464.313 81.9556 465.465 84.8049 467.449 86.6158C469.412 88.4076 471.993 89.0011 474.487 89.0011V87.812V86.6229C472.33 86.6229 470.419 86.1065 469.052 84.8593C467.706 83.6311 466.691 81.5123 466.691 77.8757H465.502ZM474.487 87.812V89.0011C479.595 89.0011 484.47 85.889 488.51 79.1192L487.489 78.5099L486.468 77.9006C482.686 84.2384 478.47 86.6229 474.487 86.6229V87.812ZM487.489 78.5099L487.192 79.6613L490.469 80.5069L490.766 79.3556L491.063 78.2042L487.786 77.3586L487.489 78.5099ZM490.766 79.3556L489.652 78.938C488.574 81.8134 486.552 85.9471 483.488 89.3406C480.433 92.7242 476.422 95.2908 471.316 95.2908V96.4799V97.6689C477.309 97.6689 481.913 94.6332 485.253 90.9344C488.584 87.2456 490.738 82.8172 491.879 79.7731L490.766 79.3556ZM471.316 96.4799V95.2908C467.326 95.2908 464.07 94.2809 461.814 92.142C459.571 90.0145 458.129 86.5917 458.129 81.364H456.94H455.751C455.751 87.0239 457.322 91.1591 460.178 93.8677C463.023 96.5647 466.955 97.6689 471.316 97.6689V96.4799ZM456.94 81.364H458.129C458.129 73.895 461.427 64.7016 466.804 57.3718C472.193 50.0265 479.467 44.8161 487.277 44.8161V43.627V42.4379C478.387 42.4379 470.491 48.3266 464.887 55.9651C459.271 63.6191 455.751 73.2942 455.751 81.364H456.94ZM487.277 43.627V44.8161C490.307 44.8161 492.805 45.311 494.514 46.4316C496.134 47.4936 497.187 49.2097 497.187 52.0835H498.377H499.566C499.566 48.5092 498.188 45.997 495.818 44.4428C493.536 42.9472 490.484 42.4379 487.277 42.4379V43.627ZM483.895 49.018V47.8289C480.244 47.8289 476.612 50.3849 473.586 53.8971C470.515 57.462 467.854 62.2519 466.172 67.2425L467.299 67.6222L468.426 68.0019C470.021 63.2676 472.54 58.7554 475.388 55.4494C478.281 52.0907 481.309 50.2071 483.895 50.2071V49.018ZM467.299 67.6222L467.43 68.804C474.286 68.0423 479.634 65.6947 483.295 62.7328C486.925 59.7952 488.995 56.1577 488.995 52.8234H487.806H486.617C486.617 55.1972 485.092 58.2192 481.799 60.884C478.536 63.5244 473.631 65.7223 467.168 66.4404L467.299 67.6222ZM487.806 52.8234H488.995C488.995 51.2822 488.558 49.9678 487.568 49.0553C486.596 48.1593 485.281 47.8289 483.895 47.8289V49.018V50.2071C484.94 50.2071 485.581 50.4581 485.956 50.8041C486.314 51.1337 486.617 51.7219 486.617 52.8234H487.806Z" fill="white" mask="url(#path-3-outside-2_14_9460)"/>
</svg>
