<svg width="113" height="26" viewBox="0 0 113 26" fill="none" xmlns="http://www.w3.org/2000/svg">
<circle cx="12.5515" cy="12.9994" r="5.39289" stroke="white" stroke-width="2.36364"/>
<circle opacity="0.8" cx="12.5518" cy="13.0001" r="9.5768" stroke="white" stroke-width="2.36364"/>
<path d="M33.5265 21L29.11 5.3511H32.1587L34.9783 16.8509H35.1235L38.1341 5.3511H40.9078L43.926 16.8585H44.0635L46.8831 5.3511H49.9319L45.5153 21H42.7187L39.5859 10.0198H39.4636L36.3231 21H33.5265ZM55.1279 21.2292C53.9512 21.2292 52.9349 20.9847 52.0792 20.4957C51.2284 20.0016 50.5739 19.3037 50.1154 18.402C49.6569 17.4953 49.4277 16.4281 49.4277 15.2004C49.4277 13.9931 49.6569 12.9336 50.1154 12.0217C50.579 11.1048 51.2259 10.3917 52.0562 9.88225C52.8866 9.36775 53.8621 9.1105 54.9828 9.1105C55.7061 9.1105 56.3887 9.22767 57.0306 9.46199C57.6775 9.69122 58.248 10.0478 58.7422 10.5317C59.2414 11.0157 59.6336 11.6321 59.9189 12.3809C60.2041 13.1246 60.3468 14.011 60.3468 15.04V15.8881H50.7267V14.0237H57.6953C57.6902 13.4939 57.5756 13.0227 57.3515 12.6101C57.1273 12.1924 56.8141 11.8638 56.4116 11.6244C56.0143 11.385 55.5507 11.2653 55.021 11.2653C54.4555 11.2653 53.9589 11.4028 53.531 11.6779C53.1031 11.9479 52.7694 12.3045 52.53 12.7476C52.2956 13.1857 52.1759 13.6671 52.1708 14.1918V15.8194C52.1708 16.502 52.2956 17.0878 52.5453 17.5768C52.7949 18.0607 53.1438 18.4326 53.5921 18.6924C54.0404 18.9471 54.565 19.0745 55.1661 19.0745C55.5686 19.0745 55.9328 19.0184 56.2588 18.9063C56.5848 18.7892 56.8676 18.6185 57.107 18.3944C57.3464 18.1703 57.5272 17.8926 57.6495 17.5615L60.2322 17.8519C60.0692 18.5345 59.7584 19.1305 59.3 19.6399C58.8466 20.1442 58.2659 20.5364 57.5578 20.8166C56.8497 21.0917 56.0398 21.2292 55.1279 21.2292ZM64.8074 5.3511V21H62.0413V5.3511H64.8074ZM69.7723 5.3511V21H67.0063V5.3511H69.7723ZM81.2475 12.3656L78.7259 12.6407C78.6546 12.386 78.5298 12.1466 78.3515 11.9224C78.1783 11.6983 77.944 11.5174 77.6485 11.3799C77.3531 11.2424 76.9914 11.1736 76.5635 11.1736C75.9879 11.1736 75.5039 11.2984 75.1117 11.548C74.7245 11.7976 74.5335 12.1211 74.5386 12.5184C74.5335 12.8597 74.6583 13.1373 74.913 13.3513C75.1728 13.5652 75.6007 13.741 76.1967 13.8785L78.1987 14.3064C79.3092 14.5458 80.1344 14.9254 80.6744 15.4449C81.2194 15.9645 81.4945 16.6446 81.4996 17.4851C81.4945 18.2237 81.278 18.8758 80.8501 19.4412C80.4273 20.0016 79.839 20.4397 79.085 20.7555C78.3311 21.0713 77.4651 21.2292 76.4871 21.2292C75.0506 21.2292 73.8942 20.9287 73.018 20.3276C72.1419 19.7214 71.6197 18.8783 71.4516 17.7984L74.1489 17.5386C74.2712 18.0684 74.531 18.4683 74.9283 18.7382C75.3256 19.0082 75.8427 19.1432 76.4794 19.1432C77.1366 19.1432 77.6638 19.0082 78.0611 18.7382C78.4636 18.4683 78.6648 18.1346 78.6648 17.7373C78.6648 17.4011 78.5349 17.1234 78.2751 16.9044C78.0204 16.6853 77.6231 16.5172 77.0831 16.4001L75.0811 15.9798C73.9553 15.7455 73.1225 15.3507 72.5825 14.7955C72.0425 14.2351 71.7751 13.527 71.7802 12.6712C71.7751 11.9479 71.9712 11.3213 72.3685 10.7915C72.771 10.2567 73.3288 9.84405 74.0419 9.55368C74.7602 9.25823 75.588 9.1105 76.5253 9.1105C77.9007 9.1105 78.9832 9.40341 79.7727 9.98923C80.5674 10.575 81.059 11.3672 81.2475 12.3656ZM83.135 25.4013V9.26332H85.8552V11.2042H86.0156C86.1583 10.9189 86.3595 10.6158 86.6193 10.2949C86.8791 9.96885 87.2306 9.69122 87.6738 9.46199C88.1169 9.22767 88.6824 9.1105 89.3701 9.1105C90.2768 9.1105 91.0944 9.34228 91.8229 9.80584C92.5564 10.2643 93.1371 10.9444 93.565 11.846C93.998 12.7426 94.2145 13.8429 94.2145 15.1469C94.2145 16.4357 94.0031 17.531 93.5803 18.4326C93.1575 19.3342 92.5819 20.0219 91.8534 20.4957C91.125 20.9694 90.2997 21.2063 89.3777 21.2063C88.7053 21.2063 88.1475 21.0942 87.7043 20.8701C87.2611 20.646 86.9046 20.376 86.6346 20.0601C86.3697 19.7392 86.1634 19.4361 86.0156 19.1509H85.901V25.4013H83.135ZM85.8475 15.1317C85.8475 15.8907 85.9545 16.5554 86.1685 17.126C86.3875 17.6965 86.7008 18.1422 87.1083 18.4632C87.5209 18.779 88.0201 18.9369 88.606 18.9369C89.2172 18.9369 89.7292 18.7739 90.1418 18.4479C90.5544 18.1168 90.8652 17.6659 91.074 17.0954C91.288 16.5198 91.395 15.8652 91.395 15.1317C91.395 14.4032 91.2905 13.7563 91.0817 13.1908C90.8728 12.6254 90.5621 12.1822 90.1495 11.8613C89.7368 11.5404 89.2223 11.3799 88.606 11.3799C88.0151 11.3799 87.5133 11.5353 87.1007 11.846C86.6881 12.1567 86.3748 12.5923 86.1608 13.1526C85.952 13.713 85.8475 14.3726 85.8475 15.1317ZM95.9377 21V9.26332H98.7038V21H95.9377ZM97.3284 7.59757C96.8903 7.59757 96.5133 7.45239 96.1975 7.16203C95.8817 6.86658 95.7238 6.51254 95.7238 6.09992C95.7238 5.68221 95.8817 5.32818 96.1975 5.03781C96.5133 4.74236 96.8903 4.59463 97.3284 4.59463C97.7716 4.59463 98.1485 4.74236 98.4593 5.03781C98.7751 5.32818 98.933 5.68221 98.933 6.09992C98.933 6.51254 98.7751 6.86658 98.4593 7.16203C98.1485 7.45239 97.7716 7.59757 97.3284 7.59757ZM103.669 14.123V21H100.903V9.26332H103.546V11.2576H103.684C103.954 10.6005 104.384 10.0784 104.975 9.69122C105.571 9.30408 106.307 9.1105 107.184 9.1105C107.994 9.1105 108.699 9.2837 109.3 9.63009C109.906 9.97649 110.375 10.4783 110.706 11.1354C111.042 11.7925 111.208 12.5897 111.203 13.527V21H108.437V13.9549C108.437 13.1705 108.233 12.5566 107.825 12.1134C107.423 11.6703 106.865 11.4487 106.152 11.4487C105.668 11.4487 105.238 11.5556 104.861 11.7696C104.489 11.9784 104.196 12.2815 103.982 12.6789C103.773 13.0762 103.669 13.5576 103.669 14.123Z" fill="white"/>
</svg>
